<svg width="12" height="12" viewBox="0 0 12 12" fill="none" xmlns="http://www.w3.org/2000/svg">
<path fill-rule="evenodd" clip-rule="evenodd" d="M0.27653 0.292893C-0.0921774 0.683417 -0.0921774 1.31658 0.27653 1.70711L4.32959 6L0.27653 10.2929C-0.0921774 10.6834 -0.0921774 11.3166 0.27653 11.7071C0.645236 12.0976 1.24303 12.0976 1.61173 11.7071L7 6L1.61173 0.292893C1.24303 -0.0976311 0.645236 -0.0976311 0.27653 0.292893Z" fill="#595959"/>
<path fill-rule="evenodd" clip-rule="evenodd" d="M5.27653 0.292893C4.90782 0.683417 4.90782 1.31658 5.27653 1.70711L9.32959 6L5.27653 10.2929C4.90782 10.6834 4.90782 11.3166 5.27653 11.7071C5.64524 12.0976 6.24303 12.0976 6.61173 11.7071L12 6L6.61173 0.292893C6.24303 -0.0976311 5.64524 -0.0976311 5.27653 0.292893Z" fill="#595959"/>
</svg>
